<?xml version="1.0" encoding="UTF-8"?>
<svg xmlns="http://www.w3.org/2000/svg" width="29.7" height="29.7" viewBox="0 0 960.0 960.0">
  <path d="m480,536 l116,116q11,11 28,11t28,-11q11,-11 11,-28t-11,-28L536,480l116,-116q11,-11 11,-28t-11,-28q-11,-11 -28,-11t-28,11L480,424 364,308q-11,-11 -28,-11t-28,11q-11,11 -11,28t11,28l116,116 -116,116q-11,11 -11,28t11,28q11,11 28,11t28,-11l116,-116ZM480,880q-83,0 -156,-31.5T197,763q-54,-54 -85.5,-127T80,480q0,-83 31.5,-156T197,197q54,-54 127,-85.5T480,80q83,0 156,31.5T763,197q54,54 85.5,127T880,480q0,83 -31.5,156T763,763q-54,54 -127,85.5T480,880ZM480,800q134,0 227,-93t93,-227q0,-134 -93,-227t-227,-93q-134,0 -227,93t-93,227q0,134 93,227t227,93ZM480,480Z" fill="#FB5061" />
</svg>
