<?xml version="1.0" encoding="UTF-8"?>
<svg xmlns="http://www.w3.org/2000/svg" width="29.7" height="29.7" viewBox="0 0 24.0 24.0">
  <path d="M5,21q-0.824,0 -1.412,-0.587A1.93,1.93 0,0 1,3 19L3,5q0,-0.824 0.587,-1.412A1.93,1.93 0,0 1,5 3h14q0.824,0 1.413,0.587Q21,4.176 21,5v14q0,0.824 -0.587,1.413A1.93,1.93 0,0 1,19 21zM7,17h10q0.3,0 0.45,-0.275a0.44,0.44 0,0 0,-0.05 -0.525l-2.75,-3.675a0.48,0.48 0,0 0,-0.4 -0.2q-0.25,0 -0.4,0.2L11.25,16 9.4,13.525a0.48,0.48 0,0 0,-0.4 -0.2q-0.25,0 -0.4,0.2l-2,2.675a0.44,0.44 0,0 0,-0.05 0.525Q6.7,17 7,17" fill="#0A1014" />
</svg>
