<?xml version="1.0" encoding="UTF-8"?>
<svg xmlns="http://www.w3.org/2000/svg" width="29.7" height="29.7" viewBox="0 0 24.0 24.0">
  <g>
    <path d="M19.2,12.175C19.2,11.679 19.152,11.167 19.072,10.688H12.144V13.519H16.112C15.952,14.432 15.424,15.231 14.64,15.743L17.008,17.583C18.4,16.288 19.2,14.399 19.2,12.175Z" fill="#4280EF" />
    <path d="M12.144,19.344C14.128,19.344 15.792,18.688 17.008,17.568L14.64,15.744C13.984,16.192 13.136,16.448 12.144,16.448C10.224,16.448 8.608,15.152 8.016,13.424L5.584,15.296C6.832,17.776 9.36,19.344 12.144,19.344Z" fill="#34A353" />
    <path d="M8.016,13.407C7.712,12.495 7.712,11.503 8.016,10.591L5.584,8.703C4.544,10.783 4.544,13.231 5.584,15.295L8.016,13.407Z" fill="#F6B704" />
    <path d="M12.144,7.568C13.184,7.552 14.208,7.952 14.96,8.672L17.056,6.56C15.728,5.312 13.968,4.64 12.144,4.656C9.36,4.656 6.832,6.224 5.584,8.704L8.016,10.592C8.608,8.848 10.224,7.568 12.144,7.568Z" fill="#E54335" />
  </g>
</svg>
