<?xml version="1.0" standalone="no"?>
<!DOCTYPE svg PUBLIC "-//W3C//DTD SVG 20010904//EN"
 "http://www.w3.org/TR/2001/REC-SVG-20010904/DTD/svg10.dtd">
<svg version="1.0" xmlns="http://www.w3.org/2000/svg"
 width="464.000000pt" height="454.000000pt" viewBox="0 0 464.000000 454.000000"
 preserveAspectRatio="xMidYMid meet">
<g transform="translate(0.000000,454.000000) scale(0.050000,-0.050000)"
fill="orange" stroke="none">
<path d="M6414 8349 c-392 -144 -390 -479 6 -874 292 -292 291 -271 23 -535
-339 -333 -400 -529 -234 -747 212 -278 437 -242 817 132 276 272 271 271 488
50 293 -300 379 -356 542 -354 314 4 508 345 349 615 -30 52 -147 189 -260
306 -258 268 -258 248 6 517 318 321 386 502 264 699 -191 309 -480 279 -844
-88 -275 -277 -272 -277 -489 -58 -344 346 -470 410 -668 337z"/>
<path d="M3959 8121 c-438 -52 -783 -145 -1149 -311 -33 -15 -73 -33 -90 -39
-56 -21 -276 -147 -393 -226 -236 -158 -279 -190 -397 -291 -472 -408 -787
-821 -1039 -1361 -146 -315 -294 -814 -321 -1083 -5 -55 -19 -195 -31 -311
-24 -231 16 -811 70 -1009 15 -55 33 -136 41 -180 119 -684 766 -1662 1420
-2145 68 -51 319 -211 420 -269 111 -63 164 -89 395 -195 734 -335 1804 -394
2615 -143 193 60 349 115 392 139 21 12 92 46 158 75 451 203 1047 680 1350
1079 49 66 95 124 101 129 19 18 167 247 206 320 252 467 394 845 465 1240 94
523 94 937 -1 1460 -88 484 -197 642 -454 657 -391 22 -527 -294 -361 -837 56
-184 49 -951 -11 -1190 -122 -482 -284 -837 -548 -1200 -44 -60 -362 -410
-374 -411 -7 0 -53 -37 -103 -81 -299 -270 -741 -492 -1260 -634 -272 -74
-1050 -78 -1320 -7 -982 260 -1650 794 -2081 1663 -441 888 -372 2121 163
2916 32 47 58 91 58 97 0 6 20 36 45 67 25 31 68 86 95 123 124 164 429 451
626 587 492 341 966 508 1594 561 202 17 802 -52 946 -109 382 -150 739 310
491 633 -180 234 -1005 371 -1718 286z"/>
<path d="M3180 6202 c-257 -54 -368 -252 -420 -752 -12 -110 -29 -231 -39
-270 -10 -38 -24 -137 -31 -220 -7 -82 -25 -222 -40 -310 -15 -88 -38 -259
-50 -379 -12 -120 -27 -226 -32 -235 -6 -8 -23 -143 -40 -299 -16 -156 -34
-290 -39 -299 -16 -25 -68 -585 -59 -629 4 -21 13 -63 19 -92 44 -214 371
-329 575 -204 176 107 212 196 267 657 17 143 39 296 49 340 9 44 27 182 39
307 32 321 89 545 128 502 13 -14 353 -871 354 -891 0 -10 18 -54 39 -98 21
-44 39 -88 39 -98 1 -9 29 -75 64 -145 223 -454 734 -311 868 243 8 33 27 78
42 99 15 22 27 52 27 67 0 16 13 56 29 91 15 35 51 124 80 198 28 74 74 193
101 263 28 71 50 137 50 147 0 9 26 43 58 73 71 68 71 68 101 -216 12 -108 26
-203 30 -211 5 -7 23 -142 40 -300 18 -157 36 -292 40 -300 5 -7 19 -110 32
-229 41 -387 173 -552 441 -552 309 0 472 304 379 710 -10 44 -28 179 -41 300
-12 121 -30 261 -41 310 -10 50 -33 207 -51 350 -18 143 -49 382 -69 530 -20
149 -54 405 -76 570 -87 651 -98 692 -227 852 -226 281 -727 107 -857 -296
-13 -42 -31 -85 -39 -96 -8 -11 -26 -56 -40 -100 -14 -44 -32 -89 -40 -100 -8
-11 -26 -56 -40 -100 -14 -44 -33 -89 -42 -99 -10 -10 -18 -32 -18 -47 0 -16
-22 -80 -48 -141 -27 -62 -68 -167 -93 -233 -24 -66 -55 -142 -69 -170 -14
-27 -36 -86 -50 -130 -22 -67 -85 -150 -114 -150 -4 0 -22 34 -38 75 -17 41
-43 102 -58 135 -16 33 -51 123 -80 200 -28 77 -65 164 -81 193 -16 29 -29 64
-29 76 0 13 -17 61 -37 107 -21 46 -62 147 -92 224 -30 77 -63 149 -73 159
-10 10 -18 32 -18 49 0 16 -17 66 -38 111 -22 44 -52 113 -68 152 -89 219
-340 351 -574 301z"/>
</g>
</svg>
